<?xml version="1.0" encoding="UTF-8" standalone="no"?>
<!DOCTYPE svg PUBLIC "-//W3C//DTD SVG 1.1//EN"
 "http://www.w3.org/Graphics/SVG/1.1/DTD/svg11.dtd">
<!-- Generated by graphviz version 2.43.0 (0)
 -->
<!-- Title: %3 Pages: 1 -->
<svg width="285pt" height="294pt"
 viewBox="0.00 0.00 285.14 293.73" xmlns="http://www.w3.org/2000/svg" xmlns:xlink="http://www.w3.org/1999/xlink">
<g id="graph0" class="graph" transform="scale(1 1) rotate(0) translate(4 289.73)">
<title>%3</title>
<polygon fill="white" stroke="transparent" points="-4,4 -4,-289.73 281.14,-289.73 281.14,4 -4,4"/>
<!-- A -->
<g id="node1" class="node">
<title>A</title>
<polygon fill="aqua" stroke="black" points="102.67,-175.9 63.37,-175.9 51.22,-213.28 39.08,-175.9 -0.22,-175.9 31.57,-152.8 19.43,-115.42 51.22,-138.52 83.02,-115.42 70.87,-152.8 102.67,-175.9"/>
<text text-anchor="middle" x="51.22" y="-160.65" font-family="Times,serif" font-size="14.00">A</text>
</g>
<!-- B -->
<g id="node2" class="node">
<title>B</title>
<polygon fill="aqua" stroke="black" points="177.11,-188.37 137.81,-188.37 125.66,-225.75 113.52,-188.37 74.22,-188.37 106.01,-165.27 93.87,-127.89 125.66,-150.99 157.46,-127.89 145.31,-165.27 177.11,-188.37"/>
<text text-anchor="middle" x="125.66" y="-173.12" font-family="Times,serif" font-size="14.00">B</text>
</g>
<!-- A&#45;&#45;B -->
<g id="edge1" class="edge">
<title>A&#45;&#45;B</title>
<path fill="none" stroke="red" d="M97.52,-172.11C97.64,-172.13 97.76,-172.15 97.87,-172.17"/>
<text text-anchor="middle" x="91.2" y="-178.14" font-family="Times,serif" font-size="20.00">1</text>
</g>
<!-- C -->
<g id="node3" class="node">
<title>C</title>
<polygon fill="aqua" stroke="black" points="146.4,-116.58 107.1,-116.58 94.96,-153.96 82.81,-116.58 43.51,-116.58 75.31,-93.48 63.16,-56.1 94.96,-79.2 126.75,-56.1 114.61,-93.48 146.4,-116.58"/>
<text text-anchor="middle" x="94.96" y="-101.33" font-family="Times,serif" font-size="14.00">C</text>
</g>
<!-- A&#45;&#45;C -->
<g id="edge2" class="edge">
<title>A&#45;&#45;C</title>
<path fill="none" stroke="red" d="M79.66,-125.78C81.1,-123.83 82.49,-121.94 83.81,-120.14"/>
<text text-anchor="middle" x="75.24" y="-106.96" font-family="Times,serif" font-size="20.00">4</text>
</g>
<!-- B&#45;&#45;C -->
<g id="edge3" class="edge">
<title>B&#45;&#45;C</title>
<path fill="none" stroke="red" d="M109.59,-139.24C107.67,-134.76 105.77,-130.32 104.01,-126.19"/>
<text text-anchor="middle" x="113.3" y="-116.72" font-family="Times,serif" font-size="20.00">2</text>
</g>
<!-- D -->
<g id="node4" class="node">
<title>D</title>
<polygon fill="aqua" stroke="black" points="215.18,-125.58 175.88,-125.58 163.73,-162.96 151.59,-125.58 112.29,-125.58 144.08,-102.48 131.94,-65.1 163.73,-88.2 195.53,-65.1 183.38,-102.48 215.18,-125.58"/>
<text text-anchor="middle" x="163.73" y="-110.33" font-family="Times,serif" font-size="14.00">D</text>
</g>
<!-- B&#45;&#45;D -->
<g id="edge4" class="edge">
<title>B&#45;&#45;D</title>
<path fill="none" stroke="red" d="M153.53,-130.86C153.62,-130.71 153.71,-130.56 153.8,-130.41"/>
<text text-anchor="middle" x="160.16" y="-136.64" font-family="Times,serif" font-size="20.00">9</text>
</g>
<!-- G -->
<g id="node5" class="node">
<title>G</title>
<polygon fill="aqua" stroke="black" points="255.03,-182.28 215.73,-182.28 203.59,-219.66 191.44,-182.28 152.14,-182.28 183.94,-159.18 171.79,-121.8 203.59,-144.91 235.38,-121.8 223.24,-159.18 255.03,-182.28"/>
<text text-anchor="middle" x="203.59" y="-167.03" font-family="Times,serif" font-size="14.00">G</text>
</g>
<!-- B&#45;&#45;G -->
<g id="edge5" class="edge">
<title>B&#45;&#45;G</title>
<path fill="none" stroke="red" d="M157.81,-174.31C159.82,-174.15 161.86,-173.99 163.9,-173.84"/>
<text text-anchor="middle" x="154.35" y="-180.07" font-family="Times,serif" font-size="20.00">4</text>
</g>
<!-- H -->
<g id="node6" class="node">
<title>H</title>
<polygon fill="aqua" stroke="black" points="222.46,-248.57 183.16,-248.57 171.01,-285.95 158.87,-248.57 119.57,-248.57 151.36,-225.46 139.22,-188.08 171.01,-211.19 202.81,-188.08 190.66,-225.46 222.46,-248.57"/>
<text text-anchor="middle" x="171.01" y="-233.32" font-family="Times,serif" font-size="14.00">H</text>
</g>
<!-- B&#45;&#45;H -->
<g id="edge6" class="edge">
<title>B&#45;&#45;H</title>
<path fill="none" stroke="red" d="M136.87,-191.7C138.76,-194.21 140.79,-196.91 142.89,-199.69"/>
<text text-anchor="middle" x="133.38" y="-201.7" font-family="Times,serif" font-size="20.00">2</text>
</g>
<!-- C&#45;&#45;D -->
<g id="edge7" class="edge">
<title>C&#45;&#45;D</title>
<path fill="none" stroke="red" d="M138.51,-110.73C138.62,-110.74 138.73,-110.76 138.83,-110.77"/>
<text text-anchor="middle" x="132.17" y="-116.75" font-family="Times,serif" font-size="20.00">1</text>
</g>
<!-- E -->
<g id="node7" class="node">
<title>E</title>
<polygon fill="aqua" stroke="black" points="205.33,-60.27 166.03,-60.27 153.89,-97.65 141.74,-60.27 102.44,-60.27 134.24,-37.16 122.09,0.22 153.89,-22.89 185.68,0.22 173.54,-37.16 205.33,-60.27"/>
<text text-anchor="middle" x="153.89" y="-45.01" font-family="Times,serif" font-size="14.00">E</text>
</g>
<!-- C&#45;&#45;E -->
<g id="edge8" class="edge">
<title>C&#45;&#45;E</title>
<path fill="none" stroke="red" d="M118.25,-82.77C126.23,-75.15 134.84,-66.92 141.6,-60.46"/>
<text text-anchor="middle" x="123.42" y="-55.61" font-family="Times,serif" font-size="20.00">3</text>
</g>
<!-- D&#45;&#45;G -->
<g id="edge11" class="edge">
<title>D&#45;&#45;G</title>
<path fill="none" stroke="red" d="M174.62,-129.53C174.71,-129.66 174.81,-129.79 174.9,-129.92"/>
<text text-anchor="middle" x="168.26" y="-113.72" font-family="Times,serif" font-size="20.00">1</text>
</g>
<!-- D&#45;&#45;E -->
<g id="edge9" class="edge">
<title>D&#45;&#45;E</title>
<path fill="none" stroke="red" d="M159.33,-84.81C159.2,-84 159.08,-83.18 158.96,-82.36"/>
<text text-anchor="middle" x="152.64" y="-67.59" font-family="Times,serif" font-size="20.00">1</text>
</g>
<!-- F -->
<g id="node8" class="node">
<title>F</title>
<polygon fill="aqua" stroke="black" points="277.36,-103.69 238.06,-103.69 225.92,-141.07 213.77,-103.69 174.47,-103.69 206.27,-80.59 194.12,-43.21 225.92,-66.31 257.71,-43.21 245.57,-80.59 277.36,-103.69"/>
<text text-anchor="middle" x="225.92" y="-88.44" font-family="Times,serif" font-size="14.00">F</text>
</g>
<!-- D&#45;&#45;F -->
<g id="edge10" class="edge">
<title>D&#45;&#45;F</title>
<path fill="none" stroke="red" d="M187.6,-105.63C189.38,-105 191.19,-104.37 193.01,-103.72"/>
<text text-anchor="middle" x="183.8" y="-110.68" font-family="Times,serif" font-size="20.00">3</text>
</g>
<!-- G&#45;&#45;H -->
<g id="edge14" class="edge">
<title>G&#45;&#45;H</title>
<path fill="none" stroke="red" d="M193.99,-190.26C192.94,-192.4 191.84,-194.63 190.72,-196.91"/>
<text text-anchor="middle" x="205.36" y="-199.58" font-family="Times,serif" font-size="20.00">14</text>
</g>
<!-- E&#45;&#45;F -->
<g id="edge12" class="edge">
<title>E&#45;&#45;F</title>
<path fill="none" stroke="red" d="M173.19,-60.35C183.36,-66.48 195.81,-73.99 206.06,-80.17"/>
<text text-anchor="middle" x="183.12" y="-76.26" font-family="Times,serif" font-size="20.00">1</text>
</g>
<!-- F&#45;&#45;G -->
<g id="edge13" class="edge">
<title>F&#45;&#45;G</title>
<path fill="none" stroke="red" d="M218.48,-118.31C216.68,-124.65 214.73,-131.51 212.86,-138.11"/>
<text text-anchor="middle" x="222.17" y="-112.21" font-family="Times,serif" font-size="20.00">6</text>
</g>
</g>
</svg>
