<?xml version="1.0" encoding="UTF-8" standalone="no"?>
<!DOCTYPE svg PUBLIC "-//W3C//DTD SVG 1.1//EN"
 "http://www.w3.org/Graphics/SVG/1.1/DTD/svg11.dtd">
<!-- Generated by graphviz version 2.43.0 (0)
 -->
<!-- Title: %3 Pages: 1 -->
<svg width="710pt" height="552pt"
 viewBox="0.00 0.00 710.00 552.00" xmlns="http://www.w3.org/2000/svg" xmlns:xlink="http://www.w3.org/1999/xlink">
<g id="graph0" class="graph" transform="scale(1 1) rotate(0) translate(4 548)">
<title>%3</title>
<polygon fill="white" stroke="transparent" points="-4,4 -4,-548 706,-548 706,4 -4,4"/>
<!-- A -->
<g id="node1" class="node">
<title>A</title>
<image xlink:href="icon_router.png" width="54px" height="36px" preserveAspectRatio="xMinYMin meet" x="648" y="-360"/>
<text text-anchor="middle" x="675" y="-337" font-family="Times,serif" font-size="20.00" fill="red">A</text>
</g>
<!-- B -->
<g id="node2" class="node">
<title>B</title>
<image xlink:href="icon_router.png" width="54px" height="36px" preserveAspectRatio="xMinYMin meet" x="432" y="-540"/>
<text text-anchor="middle" x="459" y="-517" font-family="Times,serif" font-size="20.00" fill="red">B</text>
</g>
<!-- A&#45;&#45;B -->
<g id="edge1" class="edge">
<title>A&#45;&#45;B</title>
<path fill="none" stroke="red" d="M653.1,-360.25C611.59,-394.84 521.94,-469.55 480.64,-503.97"/>
<text text-anchor="middle" x="560.37" y="-438.11" font-family="Times,serif" font-size="20.00">1</text>
</g>
<!-- C -->
<g id="node3" class="node">
<title>C</title>
<image xlink:href="icon_router.png" width="54px" height="36px" preserveAspectRatio="xMinYMin meet" x="432" y="-252"/>
<text text-anchor="middle" x="459" y="-229" font-family="Times,serif" font-size="20.00" fill="red">C</text>
</g>
<!-- A&#45;&#45;C -->
<g id="edge2" class="edge">
<title>A&#45;&#45;C</title>
<path fill="none" stroke="red" d="M647.64,-328.32C606.09,-307.55 527.55,-268.28 486.13,-247.57"/>
<text text-anchor="middle" x="560.39" y="-293.94" font-family="Times,serif" font-size="20.00">4</text>
</g>
<!-- B&#45;&#45;C -->
<g id="edge3" class="edge">
<title>B&#45;&#45;C</title>
<path fill="none" stroke="red" d="M459,-503.98C459,-452.26 459,-303.72 459,-252.01"/>
<text text-anchor="middle" x="452.5" y="-384" font-family="Times,serif" font-size="20.00">2</text>
</g>
<!-- D -->
<g id="node4" class="node">
<title>D</title>
<image xlink:href="icon_router.png" width="54px" height="36px" preserveAspectRatio="xMinYMin meet" x="216" y="-252"/>
<text text-anchor="middle" x="243" y="-229" font-family="Times,serif" font-size="20.00" fill="red">D</text>
</g>
<!-- B&#45;&#45;D -->
<g id="edge4" class="edge">
<title>B&#45;&#45;D</title>
<path fill="none" stroke="red" d="M445.49,-503.98C406.7,-452.26 295.29,-303.72 256.51,-252.01"/>
<text text-anchor="middle" x="344.5" y="-384" font-family="Times,serif" font-size="20.00">9</text>
</g>
<!-- G -->
<g id="node7" class="node">
<title>G</title>
<image xlink:href="icon_router.png" width="54px" height="36px" preserveAspectRatio="xMinYMin meet" x="36" y="-396"/>
<text text-anchor="middle" x="63" y="-373" font-family="Times,serif" font-size="20.00" fill="red">G</text>
</g>
<!-- B&#45;&#45;G -->
<g id="edge5" class="edge">
<title>B&#45;&#45;G</title>
<path fill="none" stroke="red" d="M431.78,-512.1C359.35,-485.76 162.49,-414.18 90.15,-387.87"/>
<text text-anchor="middle" x="254.46" y="-455.99" font-family="Times,serif" font-size="20.00">4</text>
</g>
<!-- H -->
<g id="node8" class="node">
<title>H</title>
<image xlink:href="icon_router.png" width="54px" height="36px" preserveAspectRatio="xMinYMin meet" x="216" y="-540"/>
<text text-anchor="middle" x="243" y="-517" font-family="Times,serif" font-size="20.00" fill="red">H</text>
</g>
<!-- B&#45;&#45;H -->
<g id="edge6" class="edge">
<title>B&#45;&#45;H</title>
<path fill="none" stroke="red" d="M431.64,-522C390.09,-522 311.55,-522 270.13,-522"/>
<text text-anchor="middle" x="344.39" y="-528" font-family="Times,serif" font-size="20.00">2</text>
</g>
<!-- C&#45;&#45;D -->
<g id="edge7" class="edge">
<title>C&#45;&#45;D</title>
<path fill="none" stroke="red" d="M431.64,-234C390.09,-234 311.55,-234 270.13,-234"/>
<text text-anchor="middle" x="344.39" y="-240" font-family="Times,serif" font-size="20.00">1</text>
</g>
<!-- E -->
<g id="node5" class="node">
<title>E</title>
<image xlink:href="icon_router.png" width="54px" height="36px" preserveAspectRatio="xMinYMin meet" x="252" y="-36"/>
<text text-anchor="middle" x="279" y="-13" font-family="Times,serif" font-size="20.00" fill="red">E</text>
</g>
<!-- C&#45;&#45;E -->
<g id="edge8" class="edge">
<title>C&#45;&#45;E</title>
<path fill="none" stroke="red" d="M443.96,-215.96C410.08,-175.3 328.08,-76.9 294.12,-36.15"/>
<text text-anchor="middle" x="362.54" y="-132.05" font-family="Times,serif" font-size="20.00">3</text>
</g>
<!-- D&#45;&#45;E -->
<g id="edge9" class="edge">
<title>D&#45;&#45;E</title>
<path fill="none" stroke="red" d="M246.01,-215.96C252.78,-175.3 269.18,-76.9 275.98,-36.15"/>
<text text-anchor="middle" x="254.49" y="-132.05" font-family="Times,serif" font-size="20.00">1</text>
</g>
<!-- F -->
<g id="node6" class="node">
<title>F</title>
<image xlink:href="icon_router.png" width="54px" height="36px" preserveAspectRatio="xMinYMin meet" x="0" y="-144"/>
<text text-anchor="middle" x="27" y="-121" font-family="Times,serif" font-size="20.00" fill="red">F</text>
</g>
<!-- D&#45;&#45;F -->
<g id="edge10" class="edge">
<title>D&#45;&#45;F</title>
<path fill="none" stroke="red" d="M215.64,-220.32C174.09,-199.55 95.55,-160.28 54.13,-139.57"/>
<text text-anchor="middle" x="128.39" y="-185.94" font-family="Times,serif" font-size="20.00">3</text>
</g>
<!-- D&#45;&#45;G -->
<g id="edge11" class="edge">
<title>D&#45;&#45;G</title>
<path fill="none" stroke="red" d="M220.2,-252.24C185.58,-279.94 120.13,-332.3 85.61,-359.91"/>
<text text-anchor="middle" x="146.41" y="-312.07" font-family="Times,serif" font-size="20.00">1</text>
</g>
<!-- E&#45;&#45;F -->
<g id="edge12" class="edge">
<title>E&#45;&#45;F</title>
<path fill="none" stroke="red" d="M251.55,-29.76C202.95,-50.59 102.34,-93.71 54.03,-114.41"/>
<text text-anchor="middle" x="146.29" y="-78.09" font-family="Times,serif" font-size="20.00">1</text>
</g>
<!-- F&#45;&#45;G -->
<g id="edge13" class="edge">
<title>F&#45;&#45;G</title>
<path fill="none" stroke="red" d="M29.59,-144.12C36.22,-190.51 53.73,-313.13 60.39,-359.7"/>
<text text-anchor="middle" x="38.49" y="-257.91" font-family="Times,serif" font-size="20.00">6</text>
</g>
<!-- G&#45;&#45;H -->
<g id="edge14" class="edge">
<title>G&#45;&#45;H</title>
<path fill="none" stroke="red" d="M85.8,-396.24C120.42,-423.94 185.87,-476.3 220.39,-503.91"/>
<text text-anchor="middle" x="140.09" y="-456.07" font-family="Times,serif" font-size="20.00">14</text>
</g>
</g>
</svg>
